<svg width="333" height="185" viewBox="0 0 333 185" fill="none" xmlns="http://www.w3.org/2000/svg">
<mask id="mask0_3227_816" style="mask-type:alpha" maskUnits="userSpaceOnUse" x="0" y="0" width="333" height="185">
<path d="M332.774 96.1774C332.774 131.485 234.227 185 171.513 185C108.799 185 0 131.485 0 96.1774C0 60.87 108.799 0 171.513 0C234.227 0 332.774 60.87 332.774 96.1774Z" fill="url(#paint0_radial_3227_816)"/>
</mask>
<g mask="url(#mask0_3227_816)">
<circle cx="4.5122" cy="6.76831" r="1.12805" fill="#808080"/>
<circle cx="13.5366" cy="6.76831" r="1.12805" fill="#808080"/>
<circle cx="22.561" cy="6.76831" r="1.12805" fill="#808080"/>
<circle cx="31.5854" cy="6.76831" r="1.12805" fill="#808080"/>
<circle cx="40.6098" cy="6.76831" r="1.12805" fill="#808080"/>
<circle cx="49.6342" cy="6.76831" r="1.12805" fill="#808080"/>
<circle cx="58.6585" cy="6.76831" r="1.12805" fill="#808080"/>
<circle cx="67.6829" cy="6.76831" r="1.12805" fill="#808080"/>
<circle cx="76.7073" cy="6.76831" r="1.12805" fill="#808080"/>
<circle cx="85.7317" cy="6.76831" r="1.12805" fill="#808080"/>
<circle cx="94.7561" cy="6.76831" r="1.12805" fill="#808080"/>
<circle cx="103.781" cy="6.76831" r="1.12805" fill="#808080"/>
<circle cx="112.805" cy="6.76831" r="1.12805" fill="#808080"/>
<circle cx="121.829" cy="6.76831" r="1.12805" fill="#808080"/>
<circle cx="130.854" cy="6.76831" r="1.12805" fill="#808080"/>
<circle cx="139.878" cy="6.76831" r="1.12805" fill="#808080"/>
<circle cx="148.902" cy="6.76831" r="1.12805" fill="#808080"/>
<circle cx="157.927" cy="6.76831" r="1.12805" fill="#808080"/>
<circle cx="166.951" cy="6.76831" r="1.12805" fill="#808080"/>
<circle cx="175.976" cy="6.76831" r="1.12805" fill="#808080"/>
<circle cx="185" cy="6.76831" r="1.12805" fill="#808080"/>
<circle cx="194.024" cy="6.76831" r="1.12805" fill="#808080"/>
<circle cx="203.049" cy="6.76831" r="1.12805" fill="#808080"/>
<circle cx="212.073" cy="6.76831" r="1.12805" fill="#808080"/>
<circle cx="221.098" cy="6.76831" r="1.12805" fill="#808080"/>
<circle cx="230.122" cy="6.76831" r="1.12805" fill="#808080"/>
<circle cx="239.146" cy="6.76831" r="1.12805" fill="#808080"/>
<circle cx="248.171" cy="6.76831" r="1.12805" fill="#808080"/>
<circle cx="257.195" cy="6.76831" r="1.12805" fill="#808080"/>
<circle cx="266.219" cy="6.76831" r="1.12805" fill="#808080"/>
<circle cx="275.244" cy="6.76831" r="1.12805" fill="#808080"/>
<circle cx="284.268" cy="6.76831" r="1.12805" fill="#808080"/>
<circle cx="293.293" cy="6.76831" r="1.12805" fill="#808080"/>
<circle cx="302.317" cy="6.76831" r="1.12805" fill="#808080"/>
<circle cx="311.341" cy="6.76831" r="1.12805" fill="#808080"/>
<circle cx="320.366" cy="6.76831" r="1.12805" fill="#808080"/>
<circle cx="329.39" cy="6.76831" r="1.12805" fill="#808080"/>
<circle cx="4.5122" cy="15.7927" r="1.12805" fill="#808080"/>
<circle cx="13.5366" cy="15.7927" r="1.12805" fill="#808080"/>
<circle cx="22.561" cy="15.7927" r="1.12805" fill="#808080"/>
<circle cx="31.5854" cy="15.7927" r="1.12805" fill="#808080"/>
<circle cx="40.6098" cy="15.7927" r="1.12805" fill="#808080"/>
<circle cx="49.6342" cy="15.7927" r="1.12805" fill="#808080"/>
<circle cx="58.6585" cy="15.7927" r="1.12805" fill="#808080"/>
<circle cx="67.6829" cy="15.7927" r="1.12805" fill="#808080"/>
<circle cx="76.7073" cy="15.7927" r="1.12805" fill="#808080"/>
<circle cx="85.7317" cy="15.7927" r="1.12805" fill="#808080"/>
<circle cx="94.7561" cy="15.7927" r="1.12805" fill="#808080"/>
<circle cx="103.781" cy="15.7927" r="1.12805" fill="#808080"/>
<circle cx="112.805" cy="15.7927" r="1.12805" fill="#808080"/>
<circle cx="121.829" cy="15.7927" r="1.12805" fill="#808080"/>
<circle cx="130.854" cy="15.7927" r="1.12805" fill="#808080"/>
<circle cx="139.878" cy="15.7927" r="1.12805" fill="#808080"/>
<circle cx="148.902" cy="15.7927" r="1.12805" fill="#808080"/>
<circle cx="157.927" cy="15.7927" r="1.12805" fill="#808080"/>
<circle cx="166.951" cy="15.7927" r="1.12805" fill="#808080"/>
<circle cx="175.976" cy="15.7927" r="1.12805" fill="#808080"/>
<circle cx="185" cy="15.7927" r="1.12805" fill="#808080"/>
<circle cx="194.024" cy="15.7927" r="1.12805" fill="#808080"/>
<circle cx="203.049" cy="15.7927" r="1.12805" fill="#808080"/>
<circle cx="212.073" cy="15.7927" r="1.12805" fill="#808080"/>
<circle cx="221.098" cy="15.7927" r="1.12805" fill="#808080"/>
<circle cx="230.122" cy="15.7927" r="1.12805" fill="#808080"/>
<circle cx="239.146" cy="15.7927" r="1.12805" fill="#808080"/>
<circle cx="248.171" cy="15.7927" r="1.12805" fill="#808080"/>
<circle cx="257.195" cy="15.7927" r="1.12805" fill="#808080"/>
<circle cx="266.219" cy="15.7927" r="1.12805" fill="#808080"/>
<circle cx="275.244" cy="15.7927" r="1.12805" fill="#808080"/>
<circle cx="284.268" cy="15.7927" r="1.12805" fill="#808080"/>
<circle cx="293.293" cy="15.7927" r="1.12805" fill="#808080"/>
<circle cx="302.317" cy="15.7927" r="1.12805" fill="#808080"/>
<circle cx="311.341" cy="15.7927" r="1.12805" fill="#808080"/>
<circle cx="320.366" cy="15.7927" r="1.12805" fill="#808080"/>
<circle cx="329.39" cy="15.7927" r="1.12805" fill="#808080"/>
<circle cx="4.5122" cy="24.8171" r="1.12805" fill="#808080"/>
<circle cx="13.5366" cy="24.8171" r="1.12805" fill="#808080"/>
<circle cx="22.561" cy="24.8171" r="1.12805" fill="#808080"/>
<circle cx="31.5854" cy="24.8171" r="1.12805" fill="#808080"/>
<circle cx="40.6098" cy="24.8171" r="1.12805" fill="#808080"/>
<circle cx="49.6342" cy="24.8171" r="1.12805" fill="#808080"/>
<circle cx="58.6585" cy="24.8171" r="1.12805" fill="#808080"/>
<circle cx="67.6829" cy="24.8171" r="1.12805" fill="#808080"/>
<circle cx="76.7073" cy="24.8171" r="1.12805" fill="#808080"/>
<circle cx="85.7317" cy="24.8171" r="1.12805" fill="#808080"/>
<circle cx="94.7561" cy="24.8171" r="1.12805" fill="#808080"/>
<circle cx="103.781" cy="24.8171" r="1.12805" fill="#808080"/>
<circle cx="112.805" cy="24.8171" r="1.12805" fill="#808080"/>
<circle cx="121.829" cy="24.8171" r="1.12805" fill="#808080"/>
<circle cx="130.854" cy="24.8171" r="1.12805" fill="#808080"/>
<circle cx="139.878" cy="24.8171" r="1.12805" fill="#808080"/>
<circle cx="148.902" cy="24.8171" r="1.12805" fill="#808080"/>
<circle cx="157.927" cy="24.8171" r="1.12805" fill="#808080"/>
<circle cx="166.951" cy="24.8171" r="1.12805" fill="#808080"/>
<circle cx="175.976" cy="24.8171" r="1.12805" fill="#808080"/>
<circle cx="185" cy="24.8171" r="1.12805" fill="#808080"/>
<circle cx="194.024" cy="24.8171" r="1.12805" fill="#808080"/>
<circle cx="203.049" cy="24.8171" r="1.12805" fill="#808080"/>
<circle cx="212.073" cy="24.8171" r="1.12805" fill="#808080"/>
<circle cx="221.098" cy="24.8171" r="1.12805" fill="#808080"/>
<circle cx="230.122" cy="24.8171" r="1.12805" fill="#808080"/>
<circle cx="239.146" cy="24.8171" r="1.12805" fill="#808080"/>
<circle cx="248.171" cy="24.8171" r="1.12805" fill="#808080"/>
<circle cx="257.195" cy="24.8171" r="1.12805" fill="#808080"/>
<circle cx="266.219" cy="24.8171" r="1.12805" fill="#808080"/>
<circle cx="275.244" cy="24.8171" r="1.12805" fill="#808080"/>
<circle cx="284.268" cy="24.8171" r="1.12805" fill="#808080"/>
<circle cx="293.293" cy="24.8171" r="1.12805" fill="#808080"/>
<circle cx="302.317" cy="24.8171" r="1.12805" fill="#808080"/>
<circle cx="311.341" cy="24.8171" r="1.12805" fill="#808080"/>
<circle cx="320.366" cy="24.8171" r="1.12805" fill="#808080"/>
<circle cx="329.39" cy="24.8171" r="1.12805" fill="#808080"/>
<circle cx="4.5122" cy="33.8415" r="1.12805" fill="#808080"/>
<circle cx="13.5366" cy="33.8415" r="1.12805" fill="#808080"/>
<circle cx="22.561" cy="33.8415" r="1.12805" fill="#808080"/>
<circle cx="31.5854" cy="33.8415" r="1.12805" fill="#808080"/>
<circle cx="40.6098" cy="33.8415" r="1.12805" fill="#808080"/>
<circle cx="49.6342" cy="33.8415" r="1.12805" fill="#808080"/>
<circle cx="58.6585" cy="33.8415" r="1.12805" fill="#808080"/>
<circle cx="67.6829" cy="33.8415" r="1.12805" fill="#808080"/>
<circle cx="76.7073" cy="33.8415" r="1.12805" fill="#808080"/>
<circle cx="85.7317" cy="33.8415" r="1.12805" fill="#808080"/>
<circle cx="94.7561" cy="33.8415" r="1.12805" fill="#808080"/>
<circle cx="103.781" cy="33.8415" r="1.12805" fill="#808080"/>
<circle cx="112.805" cy="33.8415" r="1.12805" fill="#808080"/>
<circle cx="121.829" cy="33.8415" r="1.12805" fill="#808080"/>
<circle cx="130.854" cy="33.8415" r="1.12805" fill="#808080"/>
<circle cx="139.878" cy="33.8415" r="1.12805" fill="#808080"/>
<circle cx="148.902" cy="33.8415" r="1.12805" fill="#808080"/>
<circle cx="157.927" cy="33.8415" r="1.12805" fill="#808080"/>
<circle cx="166.951" cy="33.8415" r="1.12805" fill="#808080"/>
<circle cx="175.976" cy="33.8415" r="1.12805" fill="#808080"/>
<circle cx="185" cy="33.8415" r="1.12805" fill="#808080"/>
<circle cx="194.024" cy="33.8415" r="1.12805" fill="#808080"/>
<circle cx="203.049" cy="33.8415" r="1.12805" fill="#808080"/>
<circle cx="212.073" cy="33.8415" r="1.12805" fill="#808080"/>
<circle cx="221.098" cy="33.8415" r="1.12805" fill="#808080"/>
<circle cx="230.122" cy="33.8415" r="1.12805" fill="#808080"/>
<circle cx="239.146" cy="33.8415" r="1.12805" fill="#808080"/>
<circle cx="248.171" cy="33.8415" r="1.12805" fill="#808080"/>
<circle cx="257.195" cy="33.8415" r="1.12805" fill="#808080"/>
<circle cx="266.219" cy="33.8415" r="1.12805" fill="#808080"/>
<circle cx="275.244" cy="33.8415" r="1.12805" fill="#808080"/>
<circle cx="284.268" cy="33.8415" r="1.12805" fill="#808080"/>
<circle cx="293.293" cy="33.8415" r="1.12805" fill="#808080"/>
<circle cx="302.317" cy="33.8415" r="1.12805" fill="#808080"/>
<circle cx="311.341" cy="33.8415" r="1.12805" fill="#808080"/>
<circle cx="320.366" cy="33.8415" r="1.12805" fill="#808080"/>
<circle cx="329.39" cy="33.8415" r="1.12805" fill="#808080"/>
<circle cx="4.5122" cy="42.8658" r="1.12805" fill="#808080"/>
<circle cx="13.5366" cy="42.8658" r="1.12805" fill="#808080"/>
<circle cx="22.561" cy="42.8658" r="1.12805" fill="#808080"/>
<circle cx="31.5854" cy="42.8658" r="1.12805" fill="#808080"/>
<circle cx="40.6098" cy="42.8658" r="1.12805" fill="#808080"/>
<circle cx="49.6342" cy="42.8658" r="1.12805" fill="#808080"/>
<circle cx="58.6585" cy="42.8658" r="1.12805" fill="#808080"/>
<circle cx="67.6829" cy="42.8658" r="1.12805" fill="#808080"/>
<circle cx="76.7073" cy="42.8658" r="1.12805" fill="#808080"/>
<circle cx="85.7317" cy="42.8658" r="1.12805" fill="#808080"/>
<circle cx="94.7561" cy="42.8658" r="1.12805" fill="#808080"/>
<circle cx="103.781" cy="42.8658" r="1.12805" fill="#808080"/>
<circle cx="112.805" cy="42.8658" r="1.12805" fill="#808080"/>
<circle cx="121.829" cy="42.8658" r="1.12805" fill="#808080"/>
<circle cx="130.854" cy="42.8658" r="1.12805" fill="#808080"/>
<circle cx="139.878" cy="42.8658" r="1.12805" fill="#808080"/>
<circle cx="148.902" cy="42.8658" r="1.12805" fill="#808080"/>
<circle cx="157.927" cy="42.8658" r="1.12805" fill="#808080"/>
<circle cx="166.951" cy="42.8658" r="1.12805" fill="#808080"/>
<circle cx="175.976" cy="42.8658" r="1.12805" fill="#808080"/>
<circle cx="185" cy="42.8658" r="1.12805" fill="#808080"/>
<circle cx="194.024" cy="42.8658" r="1.12805" fill="#808080"/>
<circle cx="203.049" cy="42.8658" r="1.12805" fill="#808080"/>
<circle cx="212.073" cy="42.8658" r="1.12805" fill="#808080"/>
<circle cx="221.098" cy="42.8658" r="1.12805" fill="#808080"/>
<circle cx="230.122" cy="42.8658" r="1.12805" fill="#808080"/>
<circle cx="239.146" cy="42.8658" r="1.12805" fill="#808080"/>
<circle cx="248.171" cy="42.8658" r="1.12805" fill="#808080"/>
<circle cx="257.195" cy="42.8658" r="1.12805" fill="#808080"/>
<circle cx="266.219" cy="42.8658" r="1.12805" fill="#808080"/>
<circle cx="275.244" cy="42.8658" r="1.12805" fill="#808080"/>
<circle cx="284.268" cy="42.8658" r="1.12805" fill="#808080"/>
<circle cx="293.293" cy="42.8658" r="1.12805" fill="#808080"/>
<circle cx="302.317" cy="42.8658" r="1.12805" fill="#808080"/>
<circle cx="311.341" cy="42.8658" r="1.12805" fill="#808080"/>
<circle cx="320.366" cy="42.8658" r="1.12805" fill="#808080"/>
<circle cx="329.39" cy="42.8658" r="1.12805" fill="#808080"/>
<circle cx="4.5122" cy="51.8903" r="1.12805" fill="#808080"/>
<circle cx="13.5366" cy="51.8903" r="1.12805" fill="#808080"/>
<circle cx="22.561" cy="51.8903" r="1.12805" fill="#808080"/>
<circle cx="31.5854" cy="51.8903" r="1.12805" fill="#808080"/>
<circle cx="40.6098" cy="51.8903" r="1.12805" fill="#808080"/>
<circle cx="49.6342" cy="51.8903" r="1.12805" fill="#808080"/>
<circle cx="58.6585" cy="51.8903" r="1.12805" fill="#808080"/>
<circle cx="67.6829" cy="51.8903" r="1.12805" fill="#808080"/>
<circle cx="76.7073" cy="51.8903" r="1.12805" fill="#808080"/>
<circle cx="85.7317" cy="51.8903" r="1.12805" fill="#808080"/>
<circle cx="94.7561" cy="51.8903" r="1.12805" fill="#808080"/>
<circle cx="103.781" cy="51.8903" r="1.12805" fill="#808080"/>
<circle cx="112.805" cy="51.8903" r="1.12805" fill="#808080"/>
<circle cx="121.829" cy="51.8903" r="1.12805" fill="#808080"/>
<circle cx="130.854" cy="51.8903" r="1.12805" fill="#808080"/>
<circle cx="139.878" cy="51.8903" r="1.12805" fill="#808080"/>
<circle cx="148.902" cy="51.8903" r="1.12805" fill="#808080"/>
<circle cx="157.927" cy="51.8903" r="1.12805" fill="#808080"/>
<circle cx="166.951" cy="51.8903" r="1.12805" fill="#808080"/>
<circle cx="175.976" cy="51.8903" r="1.12805" fill="#808080"/>
<circle cx="185" cy="51.8903" r="1.12805" fill="#808080"/>
<circle cx="194.024" cy="51.8903" r="1.12805" fill="#808080"/>
<circle cx="203.049" cy="51.8903" r="1.12805" fill="#808080"/>
<circle cx="212.073" cy="51.8903" r="1.12805" fill="#808080"/>
<circle cx="221.098" cy="51.8903" r="1.12805" fill="#808080"/>
<circle cx="230.122" cy="51.8903" r="1.12805" fill="#808080"/>
<circle cx="239.146" cy="51.8903" r="1.12805" fill="#808080"/>
<circle cx="248.171" cy="51.8903" r="1.12805" fill="#808080"/>
<circle cx="257.195" cy="51.8903" r="1.12805" fill="#808080"/>
<circle cx="266.219" cy="51.8903" r="1.12805" fill="#808080"/>
<circle cx="275.244" cy="51.8903" r="1.12805" fill="#808080"/>
<circle cx="284.268" cy="51.8903" r="1.12805" fill="#808080"/>
<circle cx="293.293" cy="51.8903" r="1.12805" fill="#808080"/>
<circle cx="302.317" cy="51.8903" r="1.12805" fill="#808080"/>
<circle cx="311.341" cy="51.8903" r="1.12805" fill="#808080"/>
<circle cx="320.366" cy="51.8903" r="1.12805" fill="#808080"/>
<circle cx="329.39" cy="51.8903" r="1.12805" fill="#808080"/>
<circle cx="4.5122" cy="60.9146" r="1.12805" fill="#808080"/>
<circle cx="13.5366" cy="60.9146" r="1.12805" fill="#808080"/>
<circle cx="22.561" cy="60.9146" r="1.12805" fill="#808080"/>
<circle cx="31.5854" cy="60.9146" r="1.12805" fill="#808080"/>
<circle cx="40.6098" cy="60.9146" r="1.12805" fill="#808080"/>
<circle cx="49.6342" cy="60.9146" r="1.12805" fill="#808080"/>
<circle cx="58.6585" cy="60.9146" r="1.12805" fill="#808080"/>
<circle cx="67.6829" cy="60.9146" r="1.12805" fill="#808080"/>
<circle cx="76.7073" cy="60.9146" r="1.12805" fill="#808080"/>
<circle cx="85.7317" cy="60.9146" r="1.12805" fill="#808080"/>
<circle cx="94.7561" cy="60.9146" r="1.12805" fill="#808080"/>
<circle cx="103.781" cy="60.9146" r="1.12805" fill="#808080"/>
<circle cx="112.805" cy="60.9146" r="1.12805" fill="#808080"/>
<circle cx="121.829" cy="60.9146" r="1.12805" fill="#808080"/>
<circle cx="130.854" cy="60.9146" r="1.12805" fill="#808080"/>
<circle cx="139.878" cy="60.9146" r="1.12805" fill="#808080"/>
<circle cx="148.902" cy="60.9146" r="1.12805" fill="#808080"/>
<circle cx="157.927" cy="60.9146" r="1.12805" fill="#808080"/>
<circle cx="166.951" cy="60.9146" r="1.12805" fill="#808080"/>
<circle cx="175.976" cy="60.9146" r="1.12805" fill="#808080"/>
<circle cx="185" cy="60.9146" r="1.12805" fill="#808080"/>
<circle cx="194.024" cy="60.9146" r="1.12805" fill="#808080"/>
<circle cx="203.049" cy="60.9146" r="1.12805" fill="#808080"/>
<circle cx="212.073" cy="60.9146" r="1.12805" fill="#808080"/>
<circle cx="221.098" cy="60.9146" r="1.12805" fill="#808080"/>
<circle cx="230.122" cy="60.9146" r="1.12805" fill="#808080"/>
<circle cx="239.146" cy="60.9146" r="1.12805" fill="#808080"/>
<circle cx="248.171" cy="60.9146" r="1.12805" fill="#808080"/>
<circle cx="257.195" cy="60.9146" r="1.12805" fill="#808080"/>
<circle cx="266.219" cy="60.9146" r="1.12805" fill="#808080"/>
<circle cx="275.244" cy="60.9146" r="1.12805" fill="#808080"/>
<circle cx="284.268" cy="60.9146" r="1.12805" fill="#808080"/>
<circle cx="293.293" cy="60.9146" r="1.12805" fill="#808080"/>
<circle cx="302.317" cy="60.9146" r="1.12805" fill="#808080"/>
<circle cx="311.341" cy="60.9146" r="1.12805" fill="#808080"/>
<circle cx="320.366" cy="60.9146" r="1.12805" fill="#808080"/>
<circle cx="329.39" cy="60.9146" r="1.12805" fill="#808080"/>
<circle cx="4.5122" cy="69.939" r="1.12805" fill="#808080"/>
<circle cx="13.5366" cy="69.939" r="1.12805" fill="#808080"/>
<circle cx="22.561" cy="69.939" r="1.12805" fill="#808080"/>
<circle cx="31.5854" cy="69.939" r="1.12805" fill="#808080"/>
<circle cx="40.6098" cy="69.939" r="1.12805" fill="#808080"/>
<circle cx="49.6342" cy="69.939" r="1.12805" fill="#808080"/>
<circle cx="58.6585" cy="69.939" r="1.12805" fill="#808080"/>
<circle cx="67.6829" cy="69.939" r="1.12805" fill="#808080"/>
<circle cx="76.7073" cy="69.939" r="1.12805" fill="#808080"/>
<circle cx="85.7317" cy="69.939" r="1.12805" fill="#808080"/>
<circle cx="94.7561" cy="69.939" r="1.12805" fill="#808080"/>
<circle cx="103.781" cy="69.939" r="1.12805" fill="#808080"/>
<circle cx="112.805" cy="69.939" r="1.12805" fill="#808080"/>
<circle cx="121.829" cy="69.939" r="1.12805" fill="#808080"/>
<circle cx="130.854" cy="69.939" r="1.12805" fill="#808080"/>
<circle cx="139.878" cy="69.939" r="1.12805" fill="#808080"/>
<circle cx="148.902" cy="69.939" r="1.12805" fill="#808080"/>
<circle cx="157.927" cy="69.939" r="1.12805" fill="#808080"/>
<circle cx="166.951" cy="69.939" r="1.12805" fill="#808080"/>
<circle cx="175.976" cy="69.939" r="1.12805" fill="#808080"/>
<circle cx="185" cy="69.939" r="1.12805" fill="#808080"/>
<circle cx="194.024" cy="69.939" r="1.12805" fill="#808080"/>
<circle cx="203.049" cy="69.939" r="1.12805" fill="#808080"/>
<circle cx="212.073" cy="69.939" r="1.12805" fill="#808080"/>
<circle cx="221.098" cy="69.939" r="1.12805" fill="#808080"/>
<circle cx="230.122" cy="69.939" r="1.12805" fill="#808080"/>
<circle cx="239.146" cy="69.939" r="1.12805" fill="#808080"/>
<circle cx="248.171" cy="69.939" r="1.12805" fill="#808080"/>
<circle cx="257.195" cy="69.939" r="1.12805" fill="#808080"/>
<circle cx="266.219" cy="69.939" r="1.12805" fill="#808080"/>
<circle cx="275.244" cy="69.939" r="1.12805" fill="#808080"/>
<circle cx="284.268" cy="69.939" r="1.12805" fill="#808080"/>
<circle cx="293.293" cy="69.939" r="1.12805" fill="#808080"/>
<circle cx="302.317" cy="69.939" r="1.12805" fill="#808080"/>
<circle cx="311.341" cy="69.939" r="1.12805" fill="#808080"/>
<circle cx="320.366" cy="69.939" r="1.12805" fill="#808080"/>
<circle cx="329.39" cy="69.939" r="1.12805" fill="#808080"/>
<circle cx="4.5122" cy="78.9634" r="1.12805" fill="#808080"/>
<circle cx="13.5366" cy="78.9634" r="1.12805" fill="#808080"/>
<circle cx="22.561" cy="78.9634" r="1.12805" fill="#808080"/>
<circle cx="31.5854" cy="78.9634" r="1.12805" fill="#808080"/>
<circle cx="40.6098" cy="78.9634" r="1.12805" fill="#808080"/>
<circle cx="49.6342" cy="78.9634" r="1.12805" fill="#808080"/>
<circle cx="58.6585" cy="78.9634" r="1.12805" fill="#808080"/>
<circle cx="67.6829" cy="78.9634" r="1.12805" fill="#808080"/>
<circle cx="76.7073" cy="78.9634" r="1.12805" fill="#808080"/>
<circle cx="85.7317" cy="78.9634" r="1.12805" fill="#808080"/>
<circle cx="94.7561" cy="78.9634" r="1.12805" fill="#808080"/>
<circle cx="103.781" cy="78.9634" r="1.12805" fill="#808080"/>
<circle cx="112.805" cy="78.9634" r="1.12805" fill="#808080"/>
<circle cx="121.829" cy="78.9634" r="1.12805" fill="#808080"/>
<circle cx="130.854" cy="78.9634" r="1.12805" fill="#808080"/>
<circle cx="139.878" cy="78.9634" r="1.12805" fill="#808080"/>
<circle cx="148.902" cy="78.9634" r="1.12805" fill="#808080"/>
<circle cx="157.927" cy="78.9634" r="1.12805" fill="#808080"/>
<circle cx="166.951" cy="78.9634" r="1.12805" fill="#808080"/>
<circle cx="175.976" cy="78.9634" r="1.12805" fill="#808080"/>
<circle cx="185" cy="78.9634" r="1.12805" fill="#808080"/>
<circle cx="194.024" cy="78.9634" r="1.12805" fill="#808080"/>
<circle cx="203.049" cy="78.9634" r="1.12805" fill="#808080"/>
<circle cx="212.073" cy="78.9634" r="1.12805" fill="#808080"/>
<circle cx="221.098" cy="78.9634" r="1.12805" fill="#808080"/>
<circle cx="230.122" cy="78.9634" r="1.12805" fill="#808080"/>
<circle cx="239.146" cy="78.9634" r="1.12805" fill="#808080"/>
<circle cx="248.171" cy="78.9634" r="1.12805" fill="#808080"/>
<circle cx="257.195" cy="78.9634" r="1.12805" fill="#808080"/>
<circle cx="266.219" cy="78.9634" r="1.12805" fill="#808080"/>
<circle cx="275.244" cy="78.9634" r="1.12805" fill="#808080"/>
<circle cx="284.268" cy="78.9634" r="1.12805" fill="#808080"/>
<circle cx="293.293" cy="78.9634" r="1.12805" fill="#808080"/>
<circle cx="302.317" cy="78.9634" r="1.12805" fill="#808080"/>
<circle cx="311.341" cy="78.9634" r="1.12805" fill="#808080"/>
<circle cx="320.366" cy="78.9634" r="1.12805" fill="#808080"/>
<circle cx="329.39" cy="78.9634" r="1.12805" fill="#808080"/>
<circle cx="4.5122" cy="87.9878" r="1.12805" fill="#808080"/>
<circle cx="13.5366" cy="87.9878" r="1.12805" fill="#808080"/>
<circle cx="22.561" cy="87.9878" r="1.12805" fill="#808080"/>
<circle cx="31.5854" cy="87.9878" r="1.12805" fill="#808080"/>
<circle cx="40.6098" cy="87.9878" r="1.12805" fill="#808080"/>
<circle cx="49.6342" cy="87.9878" r="1.12805" fill="#808080"/>
<circle cx="58.6585" cy="87.9878" r="1.12805" fill="#808080"/>
<circle cx="67.6829" cy="87.9878" r="1.12805" fill="#808080"/>
<circle cx="76.7073" cy="87.9878" r="1.12805" fill="#808080"/>
<circle cx="85.7317" cy="87.9878" r="1.12805" fill="#808080"/>
<circle cx="94.7561" cy="87.9878" r="1.12805" fill="#808080"/>
<circle cx="103.781" cy="87.9878" r="1.12805" fill="#808080"/>
<circle cx="112.805" cy="87.9878" r="1.12805" fill="#808080"/>
<circle cx="121.829" cy="87.9878" r="1.12805" fill="#808080"/>
<circle cx="130.854" cy="87.9878" r="1.12805" fill="#808080"/>
<circle cx="139.878" cy="87.9878" r="1.12805" fill="#808080"/>
<circle cx="148.902" cy="87.9878" r="1.12805" fill="#808080"/>
<circle cx="157.927" cy="87.9878" r="1.12805" fill="#808080"/>
<circle cx="166.951" cy="87.9878" r="1.12805" fill="#808080"/>
<circle cx="175.976" cy="87.9878" r="1.12805" fill="#808080"/>
<circle cx="185" cy="87.9878" r="1.12805" fill="#808080"/>
<circle cx="194.024" cy="87.9878" r="1.12805" fill="#808080"/>
<circle cx="203.049" cy="87.9878" r="1.12805" fill="#808080"/>
<circle cx="212.073" cy="87.9878" r="1.12805" fill="#808080"/>
<circle cx="221.098" cy="87.9878" r="1.12805" fill="#808080"/>
<circle cx="230.122" cy="87.9878" r="1.12805" fill="#808080"/>
<circle cx="239.146" cy="87.9878" r="1.12805" fill="#808080"/>
<circle cx="248.171" cy="87.9878" r="1.12805" fill="#808080"/>
<circle cx="257.195" cy="87.9878" r="1.12805" fill="#808080"/>
<circle cx="266.219" cy="87.9878" r="1.12805" fill="#808080"/>
<circle cx="275.244" cy="87.9878" r="1.12805" fill="#808080"/>
<circle cx="284.268" cy="87.9878" r="1.12805" fill="#808080"/>
<circle cx="293.293" cy="87.9878" r="1.12805" fill="#808080"/>
<circle cx="302.317" cy="87.9878" r="1.12805" fill="#808080"/>
<circle cx="311.341" cy="87.9878" r="1.12805" fill="#808080"/>
<circle cx="320.366" cy="87.9878" r="1.12805" fill="#808080"/>
<circle cx="329.39" cy="87.9878" r="1.12805" fill="#808080"/>
<circle cx="4.5122" cy="97.0122" r="1.12805" fill="#808080"/>
<circle cx="13.5366" cy="97.0122" r="1.12805" fill="#808080"/>
<circle cx="22.561" cy="97.0122" r="1.12805" fill="#808080"/>
<circle cx="31.5854" cy="97.0122" r="1.12805" fill="#808080"/>
<circle cx="40.6098" cy="97.0122" r="1.12805" fill="#808080"/>
<circle cx="49.6342" cy="97.0122" r="1.12805" fill="#808080"/>
<circle cx="58.6585" cy="97.0122" r="1.12805" fill="#808080"/>
<circle cx="67.6829" cy="97.0122" r="1.12805" fill="#808080"/>
<circle cx="76.7073" cy="97.0122" r="1.12805" fill="#808080"/>
<circle cx="85.7317" cy="97.0122" r="1.12805" fill="#808080"/>
<circle cx="94.7561" cy="97.0122" r="1.12805" fill="#808080"/>
<circle cx="103.781" cy="97.0122" r="1.12805" fill="#808080"/>
<circle cx="112.805" cy="97.0122" r="1.12805" fill="#808080"/>
<circle cx="121.829" cy="97.0122" r="1.12805" fill="#808080"/>
<circle cx="130.854" cy="97.0122" r="1.12805" fill="#808080"/>
<circle cx="139.878" cy="97.0122" r="1.12805" fill="#808080"/>
<circle cx="148.902" cy="97.0122" r="1.12805" fill="#808080"/>
<circle cx="157.927" cy="97.0122" r="1.12805" fill="#808080"/>
<circle cx="166.951" cy="97.0122" r="1.12805" fill="#808080"/>
<circle cx="175.976" cy="97.0122" r="1.12805" fill="#808080"/>
<circle cx="185" cy="97.0122" r="1.12805" fill="#808080"/>
<circle cx="194.024" cy="97.0122" r="1.12805" fill="#808080"/>
<circle cx="203.049" cy="97.0122" r="1.12805" fill="#808080"/>
<circle cx="212.073" cy="97.0122" r="1.12805" fill="#808080"/>
<circle cx="221.098" cy="97.0122" r="1.12805" fill="#808080"/>
<circle cx="230.122" cy="97.0122" r="1.12805" fill="#808080"/>
<circle cx="239.146" cy="97.0122" r="1.12805" fill="#808080"/>
<circle cx="248.171" cy="97.0122" r="1.12805" fill="#808080"/>
<circle cx="257.195" cy="97.0122" r="1.12805" fill="#808080"/>
<circle cx="266.219" cy="97.0122" r="1.12805" fill="#808080"/>
<circle cx="275.244" cy="97.0122" r="1.12805" fill="#808080"/>
<circle cx="284.268" cy="97.0122" r="1.12805" fill="#808080"/>
<circle cx="293.293" cy="97.0122" r="1.12805" fill="#808080"/>
<circle cx="302.317" cy="97.0122" r="1.12805" fill="#808080"/>
<circle cx="311.341" cy="97.0122" r="1.12805" fill="#808080"/>
<circle cx="320.366" cy="97.0122" r="1.12805" fill="#808080"/>
<circle cx="329.39" cy="97.0122" r="1.12805" fill="#808080"/>
<circle cx="4.5122" cy="106.037" r="1.12805" fill="#808080"/>
<circle cx="13.5366" cy="106.037" r="1.12805" fill="#808080"/>
<circle cx="22.561" cy="106.037" r="1.12805" fill="#808080"/>
<circle cx="31.5854" cy="106.037" r="1.12805" fill="#808080"/>
<circle cx="40.6098" cy="106.037" r="1.12805" fill="#808080"/>
<circle cx="49.6342" cy="106.037" r="1.12805" fill="#808080"/>
<circle cx="58.6585" cy="106.037" r="1.12805" fill="#808080"/>
<circle cx="67.6829" cy="106.037" r="1.12805" fill="#808080"/>
<circle cx="76.7073" cy="106.037" r="1.12805" fill="#808080"/>
<circle cx="85.7317" cy="106.037" r="1.12805" fill="#808080"/>
<circle cx="94.7561" cy="106.037" r="1.12805" fill="#808080"/>
<circle cx="103.781" cy="106.037" r="1.12805" fill="#808080"/>
<circle cx="112.805" cy="106.037" r="1.12805" fill="#808080"/>
<circle cx="121.829" cy="106.037" r="1.12805" fill="#808080"/>
<circle cx="130.854" cy="106.037" r="1.12805" fill="#808080"/>
<circle cx="139.878" cy="106.037" r="1.12805" fill="#808080"/>
<circle cx="148.902" cy="106.037" r="1.12805" fill="#808080"/>
<circle cx="157.927" cy="106.037" r="1.12805" fill="#808080"/>
<circle cx="166.951" cy="106.037" r="1.12805" fill="#808080"/>
<circle cx="175.976" cy="106.037" r="1.12805" fill="#808080"/>
<circle cx="185" cy="106.037" r="1.12805" fill="#808080"/>
<circle cx="194.024" cy="106.037" r="1.12805" fill="#808080"/>
<circle cx="203.049" cy="106.037" r="1.12805" fill="#808080"/>
<circle cx="212.073" cy="106.037" r="1.12805" fill="#808080"/>
<circle cx="221.098" cy="106.037" r="1.12805" fill="#808080"/>
<circle cx="230.122" cy="106.037" r="1.12805" fill="#808080"/>
<circle cx="239.146" cy="106.037" r="1.12805" fill="#808080"/>
<circle cx="248.171" cy="106.037" r="1.12805" fill="#808080"/>
<circle cx="257.195" cy="106.037" r="1.12805" fill="#808080"/>
<circle cx="266.219" cy="106.037" r="1.12805" fill="#808080"/>
<circle cx="275.244" cy="106.037" r="1.12805" fill="#808080"/>
<circle cx="284.268" cy="106.037" r="1.12805" fill="#808080"/>
<circle cx="293.293" cy="106.037" r="1.12805" fill="#808080"/>
<circle cx="302.317" cy="106.037" r="1.12805" fill="#808080"/>
<circle cx="311.341" cy="106.037" r="1.12805" fill="#808080"/>
<circle cx="320.366" cy="106.037" r="1.12805" fill="#808080"/>
<circle cx="329.39" cy="106.037" r="1.12805" fill="#808080"/>
<circle cx="4.5122" cy="115.061" r="1.12805" fill="#808080"/>
<circle cx="13.5366" cy="115.061" r="1.12805" fill="#808080"/>
<circle cx="22.561" cy="115.061" r="1.12805" fill="#808080"/>
<circle cx="31.5854" cy="115.061" r="1.12805" fill="#808080"/>
<circle cx="40.6098" cy="115.061" r="1.12805" fill="#808080"/>
<circle cx="49.6342" cy="115.061" r="1.12805" fill="#808080"/>
<circle cx="58.6585" cy="115.061" r="1.12805" fill="#808080"/>
<circle cx="67.6829" cy="115.061" r="1.12805" fill="#808080"/>
<circle cx="76.7073" cy="115.061" r="1.12805" fill="#808080"/>
<circle cx="85.7317" cy="115.061" r="1.12805" fill="#808080"/>
<circle cx="94.7561" cy="115.061" r="1.12805" fill="#808080"/>
<circle cx="103.781" cy="115.061" r="1.12805" fill="#808080"/>
<circle cx="112.805" cy="115.061" r="1.12805" fill="#808080"/>
<circle cx="121.829" cy="115.061" r="1.12805" fill="#808080"/>
<circle cx="130.854" cy="115.061" r="1.12805" fill="#808080"/>
<circle cx="139.878" cy="115.061" r="1.12805" fill="#808080"/>
<circle cx="148.902" cy="115.061" r="1.12805" fill="#808080"/>
<circle cx="157.927" cy="115.061" r="1.12805" fill="#808080"/>
<circle cx="166.951" cy="115.061" r="1.12805" fill="#808080"/>
<circle cx="175.976" cy="115.061" r="1.12805" fill="#808080"/>
<circle cx="185" cy="115.061" r="1.12805" fill="#808080"/>
<circle cx="194.024" cy="115.061" r="1.12805" fill="#808080"/>
<circle cx="203.049" cy="115.061" r="1.12805" fill="#808080"/>
<circle cx="212.073" cy="115.061" r="1.12805" fill="#808080"/>
<circle cx="221.098" cy="115.061" r="1.12805" fill="#808080"/>
<circle cx="230.122" cy="115.061" r="1.12805" fill="#808080"/>
<circle cx="239.146" cy="115.061" r="1.12805" fill="#808080"/>
<circle cx="248.171" cy="115.061" r="1.12805" fill="#808080"/>
<circle cx="257.195" cy="115.061" r="1.12805" fill="#808080"/>
<circle cx="266.219" cy="115.061" r="1.12805" fill="#808080"/>
<circle cx="275.244" cy="115.061" r="1.12805" fill="#808080"/>
<circle cx="284.268" cy="115.061" r="1.12805" fill="#808080"/>
<circle cx="293.293" cy="115.061" r="1.12805" fill="#808080"/>
<circle cx="302.317" cy="115.061" r="1.12805" fill="#808080"/>
<circle cx="311.341" cy="115.061" r="1.12805" fill="#808080"/>
<circle cx="320.366" cy="115.061" r="1.12805" fill="#808080"/>
<circle cx="329.39" cy="115.061" r="1.12805" fill="#808080"/>
<circle cx="4.5122" cy="124.085" r="1.12805" fill="#808080"/>
<circle cx="13.5366" cy="124.085" r="1.12805" fill="#808080"/>
<circle cx="22.561" cy="124.085" r="1.12805" fill="#808080"/>
<circle cx="31.5854" cy="124.085" r="1.12805" fill="#808080"/>
<circle cx="40.6098" cy="124.085" r="1.12805" fill="#808080"/>
<circle cx="49.6342" cy="124.085" r="1.12805" fill="#808080"/>
<circle cx="58.6585" cy="124.085" r="1.12805" fill="#808080"/>
<circle cx="67.6829" cy="124.085" r="1.12805" fill="#808080"/>
<circle cx="76.7073" cy="124.085" r="1.12805" fill="#808080"/>
<circle cx="85.7317" cy="124.085" r="1.12805" fill="#808080"/>
<circle cx="94.7561" cy="124.085" r="1.12805" fill="#808080"/>
<circle cx="103.781" cy="124.085" r="1.12805" fill="#808080"/>
<circle cx="112.805" cy="124.085" r="1.12805" fill="#808080"/>
<circle cx="121.829" cy="124.085" r="1.12805" fill="#808080"/>
<circle cx="130.854" cy="124.085" r="1.12805" fill="#808080"/>
<circle cx="139.878" cy="124.085" r="1.12805" fill="#808080"/>
<circle cx="148.902" cy="124.085" r="1.12805" fill="#808080"/>
<circle cx="157.927" cy="124.085" r="1.12805" fill="#808080"/>
<circle cx="166.951" cy="124.085" r="1.12805" fill="#808080"/>
<circle cx="175.976" cy="124.085" r="1.12805" fill="#808080"/>
<circle cx="185" cy="124.085" r="1.12805" fill="#808080"/>
<circle cx="194.024" cy="124.085" r="1.12805" fill="#808080"/>
<circle cx="203.049" cy="124.085" r="1.12805" fill="#808080"/>
<circle cx="212.073" cy="124.085" r="1.12805" fill="#808080"/>
<circle cx="221.098" cy="124.085" r="1.12805" fill="#808080"/>
<circle cx="230.122" cy="124.085" r="1.12805" fill="#808080"/>
<circle cx="239.146" cy="124.085" r="1.12805" fill="#808080"/>
<circle cx="248.171" cy="124.085" r="1.12805" fill="#808080"/>
<circle cx="257.195" cy="124.085" r="1.12805" fill="#808080"/>
<circle cx="266.219" cy="124.085" r="1.12805" fill="#808080"/>
<circle cx="275.244" cy="124.085" r="1.12805" fill="#808080"/>
<circle cx="284.268" cy="124.085" r="1.12805" fill="#808080"/>
<circle cx="293.293" cy="124.085" r="1.12805" fill="#808080"/>
<circle cx="302.317" cy="124.085" r="1.12805" fill="#808080"/>
<circle cx="311.341" cy="124.085" r="1.12805" fill="#808080"/>
<circle cx="320.366" cy="124.085" r="1.12805" fill="#808080"/>
<circle cx="329.39" cy="124.085" r="1.12805" fill="#808080"/>
<circle cx="4.5122" cy="133.11" r="1.12805" fill="#808080"/>
<circle cx="13.5366" cy="133.11" r="1.12805" fill="#808080"/>
<circle cx="22.561" cy="133.11" r="1.12805" fill="#808080"/>
<circle cx="31.5854" cy="133.11" r="1.12805" fill="#808080"/>
<circle cx="40.6098" cy="133.11" r="1.12805" fill="#808080"/>
<circle cx="49.6342" cy="133.11" r="1.12805" fill="#808080"/>
<circle cx="58.6585" cy="133.11" r="1.12805" fill="#808080"/>
<circle cx="67.6829" cy="133.11" r="1.12805" fill="#808080"/>
<circle cx="76.7073" cy="133.11" r="1.12805" fill="#808080"/>
<circle cx="85.7317" cy="133.11" r="1.12805" fill="#808080"/>
<circle cx="94.7561" cy="133.11" r="1.12805" fill="#808080"/>
<circle cx="103.781" cy="133.11" r="1.12805" fill="#808080"/>
<circle cx="112.805" cy="133.11" r="1.12805" fill="#808080"/>
<circle cx="121.829" cy="133.11" r="1.12805" fill="#808080"/>
<circle cx="130.854" cy="133.11" r="1.12805" fill="#808080"/>
<circle cx="139.878" cy="133.11" r="1.12805" fill="#808080"/>
<circle cx="148.902" cy="133.11" r="1.12805" fill="#808080"/>
<circle cx="157.927" cy="133.11" r="1.12805" fill="#808080"/>
<circle cx="166.951" cy="133.11" r="1.12805" fill="#808080"/>
<circle cx="175.976" cy="133.11" r="1.12805" fill="#808080"/>
<circle cx="185" cy="133.11" r="1.12805" fill="#808080"/>
<circle cx="194.024" cy="133.11" r="1.12805" fill="#808080"/>
<circle cx="203.049" cy="133.11" r="1.12805" fill="#808080"/>
<circle cx="212.073" cy="133.11" r="1.12805" fill="#808080"/>
<circle cx="221.098" cy="133.11" r="1.12805" fill="#808080"/>
<circle cx="230.122" cy="133.11" r="1.12805" fill="#808080"/>
<circle cx="239.146" cy="133.11" r="1.12805" fill="#808080"/>
<circle cx="248.171" cy="133.11" r="1.12805" fill="#808080"/>
<circle cx="257.195" cy="133.11" r="1.12805" fill="#808080"/>
<circle cx="266.219" cy="133.11" r="1.12805" fill="#808080"/>
<circle cx="275.244" cy="133.11" r="1.12805" fill="#808080"/>
<circle cx="284.268" cy="133.11" r="1.12805" fill="#808080"/>
<circle cx="293.293" cy="133.11" r="1.12805" fill="#808080"/>
<circle cx="302.317" cy="133.11" r="1.12805" fill="#808080"/>
<circle cx="311.341" cy="133.11" r="1.12805" fill="#808080"/>
<circle cx="320.366" cy="133.11" r="1.12805" fill="#808080"/>
<circle cx="329.39" cy="133.11" r="1.12805" fill="#808080"/>
<circle cx="4.5122" cy="142.134" r="1.12805" fill="#808080"/>
<circle cx="13.5366" cy="142.134" r="1.12805" fill="#808080"/>
<circle cx="22.561" cy="142.134" r="1.12805" fill="#808080"/>
<circle cx="31.5854" cy="142.134" r="1.12805" fill="#808080"/>
<circle cx="40.6098" cy="142.134" r="1.12805" fill="#808080"/>
<circle cx="49.6342" cy="142.134" r="1.12805" fill="#808080"/>
<circle cx="58.6585" cy="142.134" r="1.12805" fill="#808080"/>
<circle cx="67.6829" cy="142.134" r="1.12805" fill="#808080"/>
<circle cx="76.7073" cy="142.134" r="1.12805" fill="#808080"/>
<circle cx="85.7317" cy="142.134" r="1.12805" fill="#808080"/>
<circle cx="94.7561" cy="142.134" r="1.12805" fill="#808080"/>
<circle cx="103.781" cy="142.134" r="1.12805" fill="#808080"/>
<circle cx="112.805" cy="142.134" r="1.12805" fill="#808080"/>
<circle cx="121.829" cy="142.134" r="1.12805" fill="#808080"/>
<circle cx="130.854" cy="142.134" r="1.12805" fill="#808080"/>
<circle cx="139.878" cy="142.134" r="1.12805" fill="#808080"/>
<circle cx="148.902" cy="142.134" r="1.12805" fill="#808080"/>
<circle cx="157.927" cy="142.134" r="1.12805" fill="#808080"/>
<circle cx="166.951" cy="142.134" r="1.12805" fill="#808080"/>
<circle cx="175.976" cy="142.134" r="1.12805" fill="#808080"/>
<circle cx="185" cy="142.134" r="1.12805" fill="#808080"/>
<circle cx="194.024" cy="142.134" r="1.12805" fill="#808080"/>
<circle cx="203.049" cy="142.134" r="1.12805" fill="#808080"/>
<circle cx="212.073" cy="142.134" r="1.12805" fill="#808080"/>
<circle cx="221.098" cy="142.134" r="1.12805" fill="#808080"/>
<circle cx="230.122" cy="142.134" r="1.12805" fill="#808080"/>
<circle cx="239.146" cy="142.134" r="1.12805" fill="#808080"/>
<circle cx="248.171" cy="142.134" r="1.12805" fill="#808080"/>
<circle cx="257.195" cy="142.134" r="1.12805" fill="#808080"/>
<circle cx="266.219" cy="142.134" r="1.12805" fill="#808080"/>
<circle cx="275.244" cy="142.134" r="1.12805" fill="#808080"/>
<circle cx="284.268" cy="142.134" r="1.12805" fill="#808080"/>
<circle cx="293.293" cy="142.134" r="1.12805" fill="#808080"/>
<circle cx="302.317" cy="142.134" r="1.12805" fill="#808080"/>
<circle cx="311.341" cy="142.134" r="1.12805" fill="#808080"/>
<circle cx="320.366" cy="142.134" r="1.12805" fill="#808080"/>
<circle cx="329.39" cy="142.134" r="1.12805" fill="#808080"/>
<circle cx="4.5122" cy="151.159" r="1.12805" fill="#808080"/>
<circle cx="13.5366" cy="151.159" r="1.12805" fill="#808080"/>
<circle cx="22.561" cy="151.159" r="1.12805" fill="#808080"/>
<circle cx="31.5854" cy="151.159" r="1.12805" fill="#808080"/>
<circle cx="40.6098" cy="151.159" r="1.12805" fill="#808080"/>
<circle cx="49.6342" cy="151.159" r="1.12805" fill="#808080"/>
<circle cx="58.6585" cy="151.159" r="1.12805" fill="#808080"/>
<circle cx="67.6829" cy="151.159" r="1.12805" fill="#808080"/>
<circle cx="76.7073" cy="151.159" r="1.12805" fill="#808080"/>
<circle cx="85.7317" cy="151.159" r="1.12805" fill="#808080"/>
<circle cx="94.7561" cy="151.159" r="1.12805" fill="#808080"/>
<circle cx="103.781" cy="151.159" r="1.12805" fill="#808080"/>
<circle cx="112.805" cy="151.159" r="1.12805" fill="#808080"/>
<circle cx="121.829" cy="151.159" r="1.12805" fill="#808080"/>
<circle cx="130.854" cy="151.159" r="1.12805" fill="#808080"/>
<circle cx="139.878" cy="151.159" r="1.12805" fill="#808080"/>
<circle cx="148.902" cy="151.159" r="1.12805" fill="#808080"/>
<circle cx="157.927" cy="151.159" r="1.12805" fill="#808080"/>
<circle cx="166.951" cy="151.159" r="1.12805" fill="#808080"/>
<circle cx="175.976" cy="151.159" r="1.12805" fill="#808080"/>
<circle cx="185" cy="151.159" r="1.12805" fill="#808080"/>
<circle cx="194.024" cy="151.159" r="1.12805" fill="#808080"/>
<circle cx="203.049" cy="151.159" r="1.12805" fill="#808080"/>
<circle cx="212.073" cy="151.159" r="1.12805" fill="#808080"/>
<circle cx="221.098" cy="151.159" r="1.12805" fill="#808080"/>
<circle cx="230.122" cy="151.159" r="1.12805" fill="#808080"/>
<circle cx="239.146" cy="151.159" r="1.12805" fill="#808080"/>
<circle cx="248.171" cy="151.159" r="1.12805" fill="#808080"/>
<circle cx="257.195" cy="151.159" r="1.12805" fill="#808080"/>
<circle cx="266.219" cy="151.159" r="1.12805" fill="#808080"/>
<circle cx="275.244" cy="151.159" r="1.12805" fill="#808080"/>
<circle cx="284.268" cy="151.159" r="1.12805" fill="#808080"/>
<circle cx="293.293" cy="151.159" r="1.12805" fill="#808080"/>
<circle cx="302.317" cy="151.159" r="1.12805" fill="#808080"/>
<circle cx="311.341" cy="151.159" r="1.12805" fill="#808080"/>
<circle cx="320.366" cy="151.159" r="1.12805" fill="#808080"/>
<circle cx="329.39" cy="151.159" r="1.12805" fill="#808080"/>
<circle cx="4.5122" cy="160.183" r="1.12805" fill="#808080"/>
<circle cx="13.5366" cy="160.183" r="1.12805" fill="#808080"/>
<circle cx="22.561" cy="160.183" r="1.12805" fill="#808080"/>
<circle cx="31.5854" cy="160.183" r="1.12805" fill="#808080"/>
<circle cx="40.6098" cy="160.183" r="1.12805" fill="#808080"/>
<circle cx="49.6342" cy="160.183" r="1.12805" fill="#808080"/>
<circle cx="58.6585" cy="160.183" r="1.12805" fill="#808080"/>
<circle cx="67.6829" cy="160.183" r="1.12805" fill="#808080"/>
<circle cx="76.7073" cy="160.183" r="1.12805" fill="#808080"/>
<circle cx="85.7317" cy="160.183" r="1.12805" fill="#808080"/>
<circle cx="94.7561" cy="160.183" r="1.12805" fill="#808080"/>
<circle cx="103.781" cy="160.183" r="1.12805" fill="#808080"/>
<circle cx="112.805" cy="160.183" r="1.12805" fill="#808080"/>
<circle cx="121.829" cy="160.183" r="1.12805" fill="#808080"/>
<circle cx="130.854" cy="160.183" r="1.12805" fill="#808080"/>
<circle cx="139.878" cy="160.183" r="1.12805" fill="#808080"/>
<circle cx="148.902" cy="160.183" r="1.12805" fill="#808080"/>
<circle cx="157.927" cy="160.183" r="1.12805" fill="#808080"/>
<circle cx="166.951" cy="160.183" r="1.12805" fill="#808080"/>
<circle cx="175.976" cy="160.183" r="1.12805" fill="#808080"/>
<circle cx="185" cy="160.183" r="1.12805" fill="#808080"/>
<circle cx="194.024" cy="160.183" r="1.12805" fill="#808080"/>
<circle cx="203.049" cy="160.183" r="1.12805" fill="#808080"/>
<circle cx="212.073" cy="160.183" r="1.12805" fill="#808080"/>
<circle cx="221.098" cy="160.183" r="1.12805" fill="#808080"/>
<circle cx="230.122" cy="160.183" r="1.12805" fill="#808080"/>
<circle cx="239.146" cy="160.183" r="1.12805" fill="#808080"/>
<circle cx="248.171" cy="160.183" r="1.12805" fill="#808080"/>
<circle cx="257.195" cy="160.183" r="1.12805" fill="#808080"/>
<circle cx="266.219" cy="160.183" r="1.12805" fill="#808080"/>
<circle cx="275.244" cy="160.183" r="1.12805" fill="#808080"/>
<circle cx="284.268" cy="160.183" r="1.12805" fill="#808080"/>
<circle cx="293.293" cy="160.183" r="1.12805" fill="#808080"/>
<circle cx="302.317" cy="160.183" r="1.12805" fill="#808080"/>
<circle cx="311.341" cy="160.183" r="1.12805" fill="#808080"/>
<circle cx="320.366" cy="160.183" r="1.12805" fill="#808080"/>
<circle cx="329.39" cy="160.183" r="1.12805" fill="#808080"/>
<circle cx="4.5122" cy="169.207" r="1.12805" fill="#808080"/>
<circle cx="13.5366" cy="169.207" r="1.12805" fill="#808080"/>
<circle cx="22.561" cy="169.207" r="1.12805" fill="#808080"/>
<circle cx="31.5854" cy="169.207" r="1.12805" fill="#808080"/>
<circle cx="40.6098" cy="169.207" r="1.12805" fill="#808080"/>
<circle cx="49.6342" cy="169.207" r="1.12805" fill="#808080"/>
<circle cx="58.6585" cy="169.207" r="1.12805" fill="#808080"/>
<circle cx="67.6829" cy="169.207" r="1.12805" fill="#808080"/>
<circle cx="76.7073" cy="169.207" r="1.12805" fill="#808080"/>
<circle cx="85.7317" cy="169.207" r="1.12805" fill="#808080"/>
<circle cx="94.7561" cy="169.207" r="1.12805" fill="#808080"/>
<circle cx="103.781" cy="169.207" r="1.12805" fill="#808080"/>
<circle cx="112.805" cy="169.207" r="1.12805" fill="#808080"/>
<circle cx="121.829" cy="169.207" r="1.12805" fill="#808080"/>
<circle cx="130.854" cy="169.207" r="1.12805" fill="#808080"/>
<circle cx="139.878" cy="169.207" r="1.12805" fill="#808080"/>
<circle cx="148.902" cy="169.207" r="1.12805" fill="#808080"/>
<circle cx="157.927" cy="169.207" r="1.12805" fill="#808080"/>
<circle cx="166.951" cy="169.207" r="1.12805" fill="#808080"/>
<circle cx="175.976" cy="169.207" r="1.12805" fill="#808080"/>
<circle cx="185" cy="169.207" r="1.12805" fill="#808080"/>
<circle cx="194.024" cy="169.207" r="1.12805" fill="#808080"/>
<circle cx="203.049" cy="169.207" r="1.12805" fill="#808080"/>
<circle cx="212.073" cy="169.207" r="1.12805" fill="#808080"/>
<circle cx="221.098" cy="169.207" r="1.12805" fill="#808080"/>
<circle cx="230.122" cy="169.207" r="1.12805" fill="#808080"/>
<circle cx="239.146" cy="169.207" r="1.12805" fill="#808080"/>
<circle cx="248.171" cy="169.207" r="1.12805" fill="#808080"/>
<circle cx="257.195" cy="169.207" r="1.12805" fill="#808080"/>
<circle cx="266.219" cy="169.207" r="1.12805" fill="#808080"/>
<circle cx="275.244" cy="169.207" r="1.12805" fill="#808080"/>
<circle cx="284.268" cy="169.207" r="1.12805" fill="#808080"/>
<circle cx="293.293" cy="169.207" r="1.12805" fill="#808080"/>
<circle cx="302.317" cy="169.207" r="1.12805" fill="#808080"/>
<circle cx="311.341" cy="169.207" r="1.12805" fill="#808080"/>
<circle cx="320.366" cy="169.207" r="1.12805" fill="#808080"/>
<circle cx="329.39" cy="169.207" r="1.12805" fill="#808080"/>
<circle cx="4.5122" cy="178.232" r="1.12805" fill="#808080"/>
<circle cx="13.5366" cy="178.232" r="1.12805" fill="#808080"/>
<circle cx="22.561" cy="178.232" r="1.12805" fill="#808080"/>
<circle cx="31.5854" cy="178.232" r="1.12805" fill="#808080"/>
<circle cx="40.6098" cy="178.232" r="1.12805" fill="#808080"/>
<circle cx="49.6342" cy="178.232" r="1.12805" fill="#808080"/>
<circle cx="58.6585" cy="178.232" r="1.12805" fill="#808080"/>
<circle cx="67.6829" cy="178.232" r="1.12805" fill="#808080"/>
<circle cx="76.7073" cy="178.232" r="1.12805" fill="#808080"/>
<circle cx="85.7317" cy="178.232" r="1.12805" fill="#808080"/>
<circle cx="94.7561" cy="178.232" r="1.12805" fill="#808080"/>
<circle cx="103.781" cy="178.232" r="1.12805" fill="#808080"/>
<circle cx="112.805" cy="178.232" r="1.12805" fill="#808080"/>
<circle cx="121.829" cy="178.232" r="1.12805" fill="#808080"/>
<circle cx="130.854" cy="178.232" r="1.12805" fill="#808080"/>
<circle cx="139.878" cy="178.232" r="1.12805" fill="#808080"/>
<circle cx="148.902" cy="178.232" r="1.12805" fill="#808080"/>
<circle cx="157.927" cy="178.232" r="1.12805" fill="#808080"/>
<circle cx="166.951" cy="178.232" r="1.12805" fill="#808080"/>
<circle cx="175.976" cy="178.232" r="1.12805" fill="#808080"/>
<circle cx="185" cy="178.232" r="1.12805" fill="#808080"/>
<circle cx="194.024" cy="178.232" r="1.12805" fill="#808080"/>
<circle cx="203.049" cy="178.232" r="1.12805" fill="#808080"/>
<circle cx="212.073" cy="178.232" r="1.12805" fill="#808080"/>
<circle cx="221.098" cy="178.232" r="1.12805" fill="#808080"/>
<circle cx="230.122" cy="178.232" r="1.12805" fill="#808080"/>
<circle cx="239.146" cy="178.232" r="1.12805" fill="#808080"/>
<circle cx="248.171" cy="178.232" r="1.12805" fill="#808080"/>
<circle cx="257.195" cy="178.232" r="1.12805" fill="#808080"/>
<circle cx="266.219" cy="178.232" r="1.12805" fill="#808080"/>
<circle cx="275.244" cy="178.232" r="1.12805" fill="#808080"/>
<circle cx="284.268" cy="178.232" r="1.12805" fill="#808080"/>
<circle cx="293.293" cy="178.232" r="1.12805" fill="#808080"/>
<circle cx="302.317" cy="178.232" r="1.12805" fill="#808080"/>
<circle cx="311.341" cy="178.232" r="1.12805" fill="#808080"/>
<circle cx="320.366" cy="178.232" r="1.12805" fill="#808080"/>
<circle cx="329.39" cy="178.232" r="1.12805" fill="#808080"/>
</g>
<defs>
<radialGradient id="paint0_radial_3227_816" cx="0" cy="0" r="1" gradientUnits="userSpaceOnUse" gradientTransform="translate(171.513 96.1774) rotate(90) scale(117.676 209.019)">
<stop/>
<stop offset="0.123794" stop-color="#060606" stop-opacity="0.975499"/>
<stop offset="0.221557" stop-color="#111111" stop-opacity="0.934392"/>
<stop offset="0.296963" stop-color="#1F1F1F" stop-opacity="0.879121"/>
<stop offset="0.353685" stop-color="#303030" stop-opacity="0.812129"/>
<stop offset="0.395397" stop-color="#434343" stop-opacity="0.735857"/>
<stop offset="0.425771" stop-color="#595959" stop-opacity="0.652747"/>
<stop offset="0.44848" stop-color="#6F6F6F" stop-opacity="0.565242"/>
<stop offset="0.467197" stop-color="#868686" stop-opacity="0.475783"/>
<stop offset="0.485597" stop-color="#9C9C9C" stop-opacity="0.386813"/>
<stop offset="0.50735" stop-color="#B2B2B2" stop-opacity="0.300773"/>
<stop offset="0.536132" stop-color="#C7C7C7" stop-opacity="0.220106"/>
<stop offset="0.575615" stop-color="#D9D9D9" stop-opacity="0.147253"/>
<stop offset="0.629472" stop-color="#E9E9E9" stop-opacity="0.0846561"/>
<stop offset="0.701376" stop-color="#F6F6F6" stop-opacity="0.0347578"/>
<stop offset="0.795" stop-color="white" stop-opacity="0"/>
</radialGradient>
</defs>
</svg>
